<mxfile host="app.diagrams.net" modified="2023-10-18T18:28:43.905Z" agent="Mozilla/5.0 (Windows NT 10.0; Win64; x64) AppleWebKit/537.36 (KHTML, like Gecko) Chrome/117.0.0.0 Safari/537.36" etag="gn7wRg2UtG_cKumSj6Lj" version="22.0.4" type="github">
  <diagram name="第 1 页" id="LdQ1cTDSZog4TV2DCeBu">
    <mxGraphModel dx="2074" dy="1118" grid="1" gridSize="10" guides="1" tooltips="1" connect="1" arrows="1" fold="1" page="1" pageScale="1" pageWidth="827" pageHeight="1169" math="0" shadow="0">
      <root>
        <mxCell id="0" />
        <mxCell id="1" parent="0" />
        <mxCell id="czQiMBR5TgbwtpitNcuJ-91" value="" style="rounded=1;whiteSpace=wrap;html=1;dashed=1;dashPattern=8 8;" vertex="1" parent="1">
          <mxGeometry x="160" y="470" width="1010" height="250" as="geometry" />
        </mxCell>
        <mxCell id="czQiMBR5TgbwtpitNcuJ-93" value="" style="edgeStyle=orthogonalEdgeStyle;rounded=0;orthogonalLoop=1;jettySize=auto;html=1;" edge="1" parent="1" source="czQiMBR5TgbwtpitNcuJ-1" target="czQiMBR5TgbwtpitNcuJ-31">
          <mxGeometry relative="1" as="geometry" />
        </mxCell>
        <mxCell id="czQiMBR5TgbwtpitNcuJ-1" value="&lt;font style=&quot;font-size: 20px;&quot;&gt;加&lt;/font&gt;" style="rounded=0;whiteSpace=wrap;html=1;" vertex="1" parent="1">
          <mxGeometry x="260" y="750" width="40" height="40" as="geometry" />
        </mxCell>
        <mxCell id="czQiMBR5TgbwtpitNcuJ-92" value="" style="edgeStyle=orthogonalEdgeStyle;rounded=0;orthogonalLoop=1;jettySize=auto;html=1;" edge="1" parent="1" source="czQiMBR5TgbwtpitNcuJ-2" target="czQiMBR5TgbwtpitNcuJ-37">
          <mxGeometry relative="1" as="geometry" />
        </mxCell>
        <mxCell id="czQiMBR5TgbwtpitNcuJ-2" value="&lt;font style=&quot;font-size: 20px;&quot;&gt;拿&lt;/font&gt;" style="rounded=0;whiteSpace=wrap;html=1;" vertex="1" parent="1">
          <mxGeometry x="330" y="750" width="40" height="40" as="geometry" />
        </mxCell>
        <mxCell id="czQiMBR5TgbwtpitNcuJ-90" value="" style="edgeStyle=orthogonalEdgeStyle;rounded=0;orthogonalLoop=1;jettySize=auto;html=1;" edge="1" parent="1" source="czQiMBR5TgbwtpitNcuJ-3" target="czQiMBR5TgbwtpitNcuJ-39">
          <mxGeometry relative="1" as="geometry" />
        </mxCell>
        <mxCell id="czQiMBR5TgbwtpitNcuJ-3" value="&lt;font style=&quot;font-size: 20px;&quot;&gt;大&lt;/font&gt;" style="rounded=0;whiteSpace=wrap;html=1;" vertex="1" parent="1">
          <mxGeometry x="400" y="750" width="40" height="40" as="geometry" />
        </mxCell>
        <mxCell id="czQiMBR5TgbwtpitNcuJ-95" value="" style="edgeStyle=orthogonalEdgeStyle;rounded=0;orthogonalLoop=1;jettySize=auto;html=1;" edge="1" parent="1" source="czQiMBR5TgbwtpitNcuJ-4" target="czQiMBR5TgbwtpitNcuJ-40">
          <mxGeometry relative="1" as="geometry" />
        </mxCell>
        <mxCell id="czQiMBR5TgbwtpitNcuJ-4" value="&lt;font style=&quot;font-size: 20px;&quot;&gt;拟&lt;/font&gt;" style="rounded=0;whiteSpace=wrap;html=1;" vertex="1" parent="1">
          <mxGeometry x="470" y="750" width="40" height="40" as="geometry" />
        </mxCell>
        <mxCell id="czQiMBR5TgbwtpitNcuJ-96" value="" style="edgeStyle=orthogonalEdgeStyle;rounded=0;orthogonalLoop=1;jettySize=auto;html=1;" edge="1" parent="1" source="czQiMBR5TgbwtpitNcuJ-5" target="czQiMBR5TgbwtpitNcuJ-41">
          <mxGeometry relative="1" as="geometry" />
        </mxCell>
        <mxCell id="czQiMBR5TgbwtpitNcuJ-5" value="&lt;font style=&quot;font-size: 20px;&quot;&gt;修&lt;/font&gt;" style="rounded=0;whiteSpace=wrap;html=1;" vertex="1" parent="1">
          <mxGeometry x="540" y="750" width="40" height="40" as="geometry" />
        </mxCell>
        <mxCell id="czQiMBR5TgbwtpitNcuJ-97" value="" style="edgeStyle=orthogonalEdgeStyle;rounded=0;orthogonalLoop=1;jettySize=auto;html=1;" edge="1" parent="1" source="czQiMBR5TgbwtpitNcuJ-6" target="czQiMBR5TgbwtpitNcuJ-42">
          <mxGeometry relative="1" as="geometry" />
        </mxCell>
        <mxCell id="czQiMBR5TgbwtpitNcuJ-6" value="&lt;font style=&quot;font-size: 20px;&quot;&gt;定&lt;/font&gt;" style="rounded=0;whiteSpace=wrap;html=1;" vertex="1" parent="1">
          <mxGeometry x="610" y="750" width="40" height="40" as="geometry" />
        </mxCell>
        <mxCell id="czQiMBR5TgbwtpitNcuJ-98" value="" style="edgeStyle=orthogonalEdgeStyle;rounded=0;orthogonalLoop=1;jettySize=auto;html=1;" edge="1" parent="1" source="czQiMBR5TgbwtpitNcuJ-7" target="czQiMBR5TgbwtpitNcuJ-43">
          <mxGeometry relative="1" as="geometry" />
        </mxCell>
        <mxCell id="czQiMBR5TgbwtpitNcuJ-7" value="&lt;font style=&quot;font-size: 20px;&quot;&gt;食&lt;/font&gt;" style="rounded=0;whiteSpace=wrap;html=1;" vertex="1" parent="1">
          <mxGeometry x="680" y="750" width="40" height="40" as="geometry" />
        </mxCell>
        <mxCell id="czQiMBR5TgbwtpitNcuJ-99" value="" style="edgeStyle=orthogonalEdgeStyle;rounded=0;orthogonalLoop=1;jettySize=auto;html=1;" edge="1" parent="1" source="czQiMBR5TgbwtpitNcuJ-8" target="czQiMBR5TgbwtpitNcuJ-44">
          <mxGeometry relative="1" as="geometry" />
        </mxCell>
        <mxCell id="czQiMBR5TgbwtpitNcuJ-8" value="&lt;font style=&quot;font-size: 20px;&quot;&gt;品&lt;/font&gt;" style="rounded=0;whiteSpace=wrap;html=1;" vertex="1" parent="1">
          <mxGeometry x="750" y="750" width="40" height="40" as="geometry" />
        </mxCell>
        <mxCell id="czQiMBR5TgbwtpitNcuJ-100" value="" style="edgeStyle=orthogonalEdgeStyle;rounded=0;orthogonalLoop=1;jettySize=auto;html=1;" edge="1" parent="1" source="czQiMBR5TgbwtpitNcuJ-9" target="czQiMBR5TgbwtpitNcuJ-45">
          <mxGeometry relative="1" as="geometry" />
        </mxCell>
        <mxCell id="czQiMBR5TgbwtpitNcuJ-9" value="&lt;font style=&quot;font-size: 20px;&quot;&gt;标&lt;/font&gt;" style="rounded=0;whiteSpace=wrap;html=1;" vertex="1" parent="1">
          <mxGeometry x="820" y="750" width="40" height="40" as="geometry" />
        </mxCell>
        <mxCell id="czQiMBR5TgbwtpitNcuJ-101" value="" style="edgeStyle=orthogonalEdgeStyle;rounded=0;orthogonalLoop=1;jettySize=auto;html=1;" edge="1" parent="1" source="czQiMBR5TgbwtpitNcuJ-10" target="czQiMBR5TgbwtpitNcuJ-46">
          <mxGeometry relative="1" as="geometry" />
        </mxCell>
        <mxCell id="czQiMBR5TgbwtpitNcuJ-10" value="&lt;font style=&quot;font-size: 20px;&quot;&gt;签&lt;/font&gt;" style="rounded=0;whiteSpace=wrap;html=1;" vertex="1" parent="1">
          <mxGeometry x="890" y="750" width="40" height="40" as="geometry" />
        </mxCell>
        <mxCell id="czQiMBR5TgbwtpitNcuJ-102" value="" style="edgeStyle=orthogonalEdgeStyle;rounded=0;orthogonalLoop=1;jettySize=auto;html=1;" edge="1" parent="1" source="czQiMBR5TgbwtpitNcuJ-11" target="czQiMBR5TgbwtpitNcuJ-47">
          <mxGeometry relative="1" as="geometry" />
        </mxCell>
        <mxCell id="czQiMBR5TgbwtpitNcuJ-11" value="&lt;font style=&quot;font-size: 20px;&quot;&gt;法&lt;/font&gt;" style="rounded=0;whiteSpace=wrap;html=1;" vertex="1" parent="1">
          <mxGeometry x="960" y="750" width="40" height="40" as="geometry" />
        </mxCell>
        <mxCell id="czQiMBR5TgbwtpitNcuJ-103" value="" style="edgeStyle=orthogonalEdgeStyle;rounded=0;orthogonalLoop=1;jettySize=auto;html=1;" edge="1" parent="1" source="czQiMBR5TgbwtpitNcuJ-12" target="czQiMBR5TgbwtpitNcuJ-48">
          <mxGeometry relative="1" as="geometry" />
        </mxCell>
        <mxCell id="czQiMBR5TgbwtpitNcuJ-12" value="&lt;font style=&quot;font-size: 20px;&quot;&gt;规&lt;/font&gt;" style="rounded=0;whiteSpace=wrap;html=1;" vertex="1" parent="1">
          <mxGeometry x="1030" y="750" width="40" height="40" as="geometry" />
        </mxCell>
        <mxCell id="czQiMBR5TgbwtpitNcuJ-94" value="" style="edgeStyle=orthogonalEdgeStyle;rounded=0;orthogonalLoop=1;jettySize=auto;html=1;" edge="1" parent="1" source="czQiMBR5TgbwtpitNcuJ-13" target="czQiMBR5TgbwtpitNcuJ-38">
          <mxGeometry relative="1" as="geometry" />
        </mxCell>
        <mxCell id="czQiMBR5TgbwtpitNcuJ-13" value="&lt;font style=&quot;font-size: 20px;&quot;&gt;CLS&lt;/font&gt;" style="rounded=0;whiteSpace=wrap;html=1;" vertex="1" parent="1">
          <mxGeometry x="170" y="750" width="60" height="40" as="geometry" />
        </mxCell>
        <mxCell id="czQiMBR5TgbwtpitNcuJ-104" value="" style="edgeStyle=orthogonalEdgeStyle;rounded=0;orthogonalLoop=1;jettySize=auto;html=1;" edge="1" parent="1" source="czQiMBR5TgbwtpitNcuJ-14" target="czQiMBR5TgbwtpitNcuJ-49">
          <mxGeometry relative="1" as="geometry" />
        </mxCell>
        <mxCell id="czQiMBR5TgbwtpitNcuJ-14" value="&lt;span style=&quot;font-size: 20px;&quot;&gt;SEP&lt;/span&gt;" style="rounded=0;whiteSpace=wrap;html=1;" vertex="1" parent="1">
          <mxGeometry x="1100" y="750" width="60" height="40" as="geometry" />
        </mxCell>
        <mxCell id="czQiMBR5TgbwtpitNcuJ-31" value="Trm" style="ellipse;whiteSpace=wrap;html=1;aspect=fixed;" vertex="1" parent="1">
          <mxGeometry x="260" y="640" width="40" height="40" as="geometry" />
        </mxCell>
        <mxCell id="czQiMBR5TgbwtpitNcuJ-37" value="Trm" style="ellipse;whiteSpace=wrap;html=1;aspect=fixed;" vertex="1" parent="1">
          <mxGeometry x="330" y="640" width="40" height="40" as="geometry" />
        </mxCell>
        <mxCell id="czQiMBR5TgbwtpitNcuJ-38" value="Trm" style="ellipse;whiteSpace=wrap;html=1;aspect=fixed;" vertex="1" parent="1">
          <mxGeometry x="180" y="640" width="40" height="40" as="geometry" />
        </mxCell>
        <mxCell id="czQiMBR5TgbwtpitNcuJ-39" value="Trm" style="ellipse;whiteSpace=wrap;html=1;aspect=fixed;" vertex="1" parent="1">
          <mxGeometry x="400" y="640" width="40" height="40" as="geometry" />
        </mxCell>
        <mxCell id="czQiMBR5TgbwtpitNcuJ-40" value="Trm" style="ellipse;whiteSpace=wrap;html=1;aspect=fixed;" vertex="1" parent="1">
          <mxGeometry x="470" y="640" width="40" height="40" as="geometry" />
        </mxCell>
        <mxCell id="czQiMBR5TgbwtpitNcuJ-41" value="Trm" style="ellipse;whiteSpace=wrap;html=1;aspect=fixed;" vertex="1" parent="1">
          <mxGeometry x="540" y="640" width="40" height="40" as="geometry" />
        </mxCell>
        <mxCell id="czQiMBR5TgbwtpitNcuJ-42" value="Trm" style="ellipse;whiteSpace=wrap;html=1;aspect=fixed;" vertex="1" parent="1">
          <mxGeometry x="610" y="640" width="40" height="40" as="geometry" />
        </mxCell>
        <mxCell id="czQiMBR5TgbwtpitNcuJ-43" value="Trm" style="ellipse;whiteSpace=wrap;html=1;aspect=fixed;" vertex="1" parent="1">
          <mxGeometry x="680" y="640" width="40" height="40" as="geometry" />
        </mxCell>
        <mxCell id="czQiMBR5TgbwtpitNcuJ-44" value="Trm" style="ellipse;whiteSpace=wrap;html=1;aspect=fixed;" vertex="1" parent="1">
          <mxGeometry x="750" y="640" width="40" height="40" as="geometry" />
        </mxCell>
        <mxCell id="czQiMBR5TgbwtpitNcuJ-45" value="Trm" style="ellipse;whiteSpace=wrap;html=1;aspect=fixed;" vertex="1" parent="1">
          <mxGeometry x="820" y="640" width="40" height="40" as="geometry" />
        </mxCell>
        <mxCell id="czQiMBR5TgbwtpitNcuJ-46" value="Trm" style="ellipse;whiteSpace=wrap;html=1;aspect=fixed;" vertex="1" parent="1">
          <mxGeometry x="890" y="640" width="40" height="40" as="geometry" />
        </mxCell>
        <mxCell id="czQiMBR5TgbwtpitNcuJ-47" value="Trm" style="ellipse;whiteSpace=wrap;html=1;aspect=fixed;" vertex="1" parent="1">
          <mxGeometry x="960" y="640" width="40" height="40" as="geometry" />
        </mxCell>
        <mxCell id="czQiMBR5TgbwtpitNcuJ-48" value="Trm" style="ellipse;whiteSpace=wrap;html=1;aspect=fixed;" vertex="1" parent="1">
          <mxGeometry x="1030" y="640" width="40" height="40" as="geometry" />
        </mxCell>
        <mxCell id="czQiMBR5TgbwtpitNcuJ-49" value="Trm" style="ellipse;whiteSpace=wrap;html=1;aspect=fixed;" vertex="1" parent="1">
          <mxGeometry x="1110" y="640" width="40" height="40" as="geometry" />
        </mxCell>
        <mxCell id="czQiMBR5TgbwtpitNcuJ-50" value="Trm" style="ellipse;whiteSpace=wrap;html=1;aspect=fixed;" vertex="1" parent="1">
          <mxGeometry x="260" y="572" width="40" height="40" as="geometry" />
        </mxCell>
        <mxCell id="czQiMBR5TgbwtpitNcuJ-51" value="Trm" style="ellipse;whiteSpace=wrap;html=1;aspect=fixed;" vertex="1" parent="1">
          <mxGeometry x="330" y="572" width="40" height="40" as="geometry" />
        </mxCell>
        <mxCell id="czQiMBR5TgbwtpitNcuJ-52" value="Trm" style="ellipse;whiteSpace=wrap;html=1;aspect=fixed;" vertex="1" parent="1">
          <mxGeometry x="180" y="572" width="40" height="40" as="geometry" />
        </mxCell>
        <mxCell id="czQiMBR5TgbwtpitNcuJ-53" value="Trm" style="ellipse;whiteSpace=wrap;html=1;aspect=fixed;" vertex="1" parent="1">
          <mxGeometry x="400" y="572" width="40" height="40" as="geometry" />
        </mxCell>
        <mxCell id="czQiMBR5TgbwtpitNcuJ-54" value="Trm" style="ellipse;whiteSpace=wrap;html=1;aspect=fixed;" vertex="1" parent="1">
          <mxGeometry x="470" y="572" width="40" height="40" as="geometry" />
        </mxCell>
        <mxCell id="czQiMBR5TgbwtpitNcuJ-55" value="Trm" style="ellipse;whiteSpace=wrap;html=1;aspect=fixed;" vertex="1" parent="1">
          <mxGeometry x="540" y="572" width="40" height="40" as="geometry" />
        </mxCell>
        <mxCell id="czQiMBR5TgbwtpitNcuJ-56" value="Trm" style="ellipse;whiteSpace=wrap;html=1;aspect=fixed;" vertex="1" parent="1">
          <mxGeometry x="610" y="572" width="40" height="40" as="geometry" />
        </mxCell>
        <mxCell id="czQiMBR5TgbwtpitNcuJ-57" value="Trm" style="ellipse;whiteSpace=wrap;html=1;aspect=fixed;" vertex="1" parent="1">
          <mxGeometry x="680" y="572" width="40" height="40" as="geometry" />
        </mxCell>
        <mxCell id="czQiMBR5TgbwtpitNcuJ-58" value="Trm" style="ellipse;whiteSpace=wrap;html=1;aspect=fixed;" vertex="1" parent="1">
          <mxGeometry x="750" y="572" width="40" height="40" as="geometry" />
        </mxCell>
        <mxCell id="czQiMBR5TgbwtpitNcuJ-59" value="Trm" style="ellipse;whiteSpace=wrap;html=1;aspect=fixed;" vertex="1" parent="1">
          <mxGeometry x="820" y="572" width="40" height="40" as="geometry" />
        </mxCell>
        <mxCell id="czQiMBR5TgbwtpitNcuJ-60" value="Trm" style="ellipse;whiteSpace=wrap;html=1;aspect=fixed;" vertex="1" parent="1">
          <mxGeometry x="890" y="572" width="40" height="40" as="geometry" />
        </mxCell>
        <mxCell id="czQiMBR5TgbwtpitNcuJ-61" value="Trm" style="ellipse;whiteSpace=wrap;html=1;aspect=fixed;" vertex="1" parent="1">
          <mxGeometry x="960" y="572" width="40" height="40" as="geometry" />
        </mxCell>
        <mxCell id="czQiMBR5TgbwtpitNcuJ-62" value="Trm" style="ellipse;whiteSpace=wrap;html=1;aspect=fixed;" vertex="1" parent="1">
          <mxGeometry x="1030" y="572" width="40" height="40" as="geometry" />
        </mxCell>
        <mxCell id="czQiMBR5TgbwtpitNcuJ-63" value="Trm" style="ellipse;whiteSpace=wrap;html=1;aspect=fixed;" vertex="1" parent="1">
          <mxGeometry x="1110" y="572" width="40" height="40" as="geometry" />
        </mxCell>
        <mxCell id="czQiMBR5TgbwtpitNcuJ-64" value="Trm" style="ellipse;whiteSpace=wrap;html=1;aspect=fixed;" vertex="1" parent="1">
          <mxGeometry x="260" y="500" width="40" height="40" as="geometry" />
        </mxCell>
        <mxCell id="czQiMBR5TgbwtpitNcuJ-65" value="Trm" style="ellipse;whiteSpace=wrap;html=1;aspect=fixed;" vertex="1" parent="1">
          <mxGeometry x="330" y="500" width="40" height="40" as="geometry" />
        </mxCell>
        <mxCell id="czQiMBR5TgbwtpitNcuJ-66" value="Trm" style="ellipse;whiteSpace=wrap;html=1;aspect=fixed;" vertex="1" parent="1">
          <mxGeometry x="180" y="500" width="40" height="40" as="geometry" />
        </mxCell>
        <mxCell id="czQiMBR5TgbwtpitNcuJ-67" value="Trm" style="ellipse;whiteSpace=wrap;html=1;aspect=fixed;" vertex="1" parent="1">
          <mxGeometry x="400" y="500" width="40" height="40" as="geometry" />
        </mxCell>
        <mxCell id="czQiMBR5TgbwtpitNcuJ-68" value="Trm" style="ellipse;whiteSpace=wrap;html=1;aspect=fixed;" vertex="1" parent="1">
          <mxGeometry x="470" y="500" width="40" height="40" as="geometry" />
        </mxCell>
        <mxCell id="czQiMBR5TgbwtpitNcuJ-69" value="Trm" style="ellipse;whiteSpace=wrap;html=1;aspect=fixed;" vertex="1" parent="1">
          <mxGeometry x="540" y="500" width="40" height="40" as="geometry" />
        </mxCell>
        <mxCell id="czQiMBR5TgbwtpitNcuJ-70" value="Trm" style="ellipse;whiteSpace=wrap;html=1;aspect=fixed;" vertex="1" parent="1">
          <mxGeometry x="610" y="500" width="40" height="40" as="geometry" />
        </mxCell>
        <mxCell id="czQiMBR5TgbwtpitNcuJ-71" value="Trm" style="ellipse;whiteSpace=wrap;html=1;aspect=fixed;" vertex="1" parent="1">
          <mxGeometry x="680" y="500" width="40" height="40" as="geometry" />
        </mxCell>
        <mxCell id="czQiMBR5TgbwtpitNcuJ-72" value="Trm" style="ellipse;whiteSpace=wrap;html=1;aspect=fixed;" vertex="1" parent="1">
          <mxGeometry x="750" y="500" width="40" height="40" as="geometry" />
        </mxCell>
        <mxCell id="czQiMBR5TgbwtpitNcuJ-73" value="Trm" style="ellipse;whiteSpace=wrap;html=1;aspect=fixed;" vertex="1" parent="1">
          <mxGeometry x="820" y="500" width="40" height="40" as="geometry" />
        </mxCell>
        <mxCell id="czQiMBR5TgbwtpitNcuJ-74" value="Trm" style="ellipse;whiteSpace=wrap;html=1;aspect=fixed;" vertex="1" parent="1">
          <mxGeometry x="890" y="500" width="40" height="40" as="geometry" />
        </mxCell>
        <mxCell id="czQiMBR5TgbwtpitNcuJ-75" value="Trm" style="ellipse;whiteSpace=wrap;html=1;aspect=fixed;" vertex="1" parent="1">
          <mxGeometry x="960" y="500" width="40" height="40" as="geometry" />
        </mxCell>
        <mxCell id="czQiMBR5TgbwtpitNcuJ-76" value="Trm" style="ellipse;whiteSpace=wrap;html=1;aspect=fixed;" vertex="1" parent="1">
          <mxGeometry x="1030" y="500" width="40" height="40" as="geometry" />
        </mxCell>
        <mxCell id="czQiMBR5TgbwtpitNcuJ-77" value="Trm" style="ellipse;whiteSpace=wrap;html=1;aspect=fixed;" vertex="1" parent="1">
          <mxGeometry x="1110" y="500" width="40" height="40" as="geometry" />
        </mxCell>
        <mxCell id="czQiMBR5TgbwtpitNcuJ-107" value="" style="rounded=1;whiteSpace=wrap;html=1;dashed=1;dashPattern=8 8;" vertex="1" parent="1">
          <mxGeometry x="280" y="930" width="680" height="240" as="geometry" />
        </mxCell>
        <mxCell id="czQiMBR5TgbwtpitNcuJ-108" value="" style="edgeStyle=orthogonalEdgeStyle;rounded=0;orthogonalLoop=1;jettySize=auto;html=1;" edge="1" parent="1" source="czQiMBR5TgbwtpitNcuJ-109" target="czQiMBR5TgbwtpitNcuJ-136">
          <mxGeometry relative="1" as="geometry" />
        </mxCell>
        <mxCell id="czQiMBR5TgbwtpitNcuJ-109" value="&lt;span style=&quot;font-size: 20px;&quot;&gt;日&lt;/span&gt;" style="rounded=0;whiteSpace=wrap;html=1;" vertex="1" parent="1">
          <mxGeometry x="420" y="1200" width="40" height="40" as="geometry" />
        </mxCell>
        <mxCell id="czQiMBR5TgbwtpitNcuJ-110" value="" style="edgeStyle=orthogonalEdgeStyle;rounded=0;orthogonalLoop=1;jettySize=auto;html=1;" edge="1" parent="1" source="czQiMBR5TgbwtpitNcuJ-111" target="czQiMBR5TgbwtpitNcuJ-137">
          <mxGeometry relative="1" as="geometry" />
        </mxCell>
        <mxCell id="czQiMBR5TgbwtpitNcuJ-111" value="&lt;font style=&quot;font-size: 20px;&quot;&gt;本&lt;/font&gt;" style="rounded=0;whiteSpace=wrap;html=1;" vertex="1" parent="1">
          <mxGeometry x="490" y="1200" width="40" height="40" as="geometry" />
        </mxCell>
        <mxCell id="czQiMBR5TgbwtpitNcuJ-116" value="" style="edgeStyle=orthogonalEdgeStyle;rounded=0;orthogonalLoop=1;jettySize=auto;html=1;" edge="1" parent="1" source="czQiMBR5TgbwtpitNcuJ-117" target="czQiMBR5TgbwtpitNcuJ-141">
          <mxGeometry relative="1" as="geometry" />
        </mxCell>
        <mxCell id="czQiMBR5TgbwtpitNcuJ-117" value="&lt;font style=&quot;font-size: 20px;&quot;&gt;修&lt;/font&gt;" style="rounded=0;whiteSpace=wrap;html=1;" vertex="1" parent="1">
          <mxGeometry x="560" y="1200" width="40" height="40" as="geometry" />
        </mxCell>
        <mxCell id="czQiMBR5TgbwtpitNcuJ-118" value="" style="edgeStyle=orthogonalEdgeStyle;rounded=0;orthogonalLoop=1;jettySize=auto;html=1;" edge="1" parent="1" source="czQiMBR5TgbwtpitNcuJ-119" target="czQiMBR5TgbwtpitNcuJ-142">
          <mxGeometry relative="1" as="geometry" />
        </mxCell>
        <mxCell id="czQiMBR5TgbwtpitNcuJ-119" value="&lt;font style=&quot;font-size: 20px;&quot;&gt;定&lt;/font&gt;" style="rounded=0;whiteSpace=wrap;html=1;" vertex="1" parent="1">
          <mxGeometry x="630" y="1200" width="40" height="40" as="geometry" />
        </mxCell>
        <mxCell id="czQiMBR5TgbwtpitNcuJ-128" value="" style="edgeStyle=orthogonalEdgeStyle;rounded=0;orthogonalLoop=1;jettySize=auto;html=1;" edge="1" parent="1" source="czQiMBR5TgbwtpitNcuJ-129" target="czQiMBR5TgbwtpitNcuJ-147">
          <mxGeometry relative="1" as="geometry" />
        </mxCell>
        <mxCell id="czQiMBR5TgbwtpitNcuJ-129" value="&lt;font style=&quot;font-size: 20px;&quot;&gt;法&lt;/font&gt;" style="rounded=0;whiteSpace=wrap;html=1;" vertex="1" parent="1">
          <mxGeometry x="700" y="1200" width="40" height="40" as="geometry" />
        </mxCell>
        <mxCell id="czQiMBR5TgbwtpitNcuJ-130" value="" style="edgeStyle=orthogonalEdgeStyle;rounded=0;orthogonalLoop=1;jettySize=auto;html=1;" edge="1" parent="1" source="czQiMBR5TgbwtpitNcuJ-131" target="czQiMBR5TgbwtpitNcuJ-148">
          <mxGeometry relative="1" as="geometry" />
        </mxCell>
        <mxCell id="czQiMBR5TgbwtpitNcuJ-131" value="&lt;font style=&quot;font-size: 20px;&quot;&gt;规&lt;/font&gt;" style="rounded=0;whiteSpace=wrap;html=1;" vertex="1" parent="1">
          <mxGeometry x="770" y="1200" width="40" height="40" as="geometry" />
        </mxCell>
        <mxCell id="czQiMBR5TgbwtpitNcuJ-132" value="" style="edgeStyle=orthogonalEdgeStyle;rounded=0;orthogonalLoop=1;jettySize=auto;html=1;" edge="1" parent="1" source="czQiMBR5TgbwtpitNcuJ-133" target="czQiMBR5TgbwtpitNcuJ-138">
          <mxGeometry relative="1" as="geometry" />
        </mxCell>
        <mxCell id="czQiMBR5TgbwtpitNcuJ-133" value="&lt;font style=&quot;font-size: 20px;&quot;&gt;CLS&lt;/font&gt;" style="rounded=0;whiteSpace=wrap;html=1;" vertex="1" parent="1">
          <mxGeometry x="330" y="1200" width="60" height="40" as="geometry" />
        </mxCell>
        <mxCell id="czQiMBR5TgbwtpitNcuJ-134" value="" style="edgeStyle=orthogonalEdgeStyle;rounded=0;orthogonalLoop=1;jettySize=auto;html=1;" edge="1" parent="1" source="czQiMBR5TgbwtpitNcuJ-135" target="czQiMBR5TgbwtpitNcuJ-149">
          <mxGeometry relative="1" as="geometry" />
        </mxCell>
        <mxCell id="czQiMBR5TgbwtpitNcuJ-135" value="&lt;span style=&quot;font-size: 20px;&quot;&gt;SEP&lt;/span&gt;" style="rounded=0;whiteSpace=wrap;html=1;" vertex="1" parent="1">
          <mxGeometry x="840" y="1200" width="60" height="40" as="geometry" />
        </mxCell>
        <mxCell id="czQiMBR5TgbwtpitNcuJ-191" value="" style="edgeStyle=orthogonalEdgeStyle;rounded=0;orthogonalLoop=1;jettySize=auto;html=1;dashed=1;" edge="1" parent="1" source="czQiMBR5TgbwtpitNcuJ-136" target="czQiMBR5TgbwtpitNcuJ-150">
          <mxGeometry relative="1" as="geometry" />
        </mxCell>
        <mxCell id="czQiMBR5TgbwtpitNcuJ-136" value="E1" style="ellipse;whiteSpace=wrap;html=1;aspect=fixed;" vertex="1" parent="1">
          <mxGeometry x="420" y="1100" width="40" height="40" as="geometry" />
        </mxCell>
        <mxCell id="czQiMBR5TgbwtpitNcuJ-192" value="" style="edgeStyle=orthogonalEdgeStyle;rounded=0;orthogonalLoop=1;jettySize=auto;html=1;dashed=1;" edge="1" parent="1" source="czQiMBR5TgbwtpitNcuJ-137" target="czQiMBR5TgbwtpitNcuJ-151">
          <mxGeometry relative="1" as="geometry" />
        </mxCell>
        <mxCell id="czQiMBR5TgbwtpitNcuJ-137" value="E2" style="ellipse;whiteSpace=wrap;html=1;aspect=fixed;" vertex="1" parent="1">
          <mxGeometry x="490" y="1100" width="40" height="40" as="geometry" />
        </mxCell>
        <mxCell id="czQiMBR5TgbwtpitNcuJ-188" style="edgeStyle=orthogonalEdgeStyle;rounded=0;orthogonalLoop=1;jettySize=auto;html=1;entryX=0.5;entryY=1;entryDx=0;entryDy=0;dashed=1;" edge="1" parent="1" source="czQiMBR5TgbwtpitNcuJ-138" target="czQiMBR5TgbwtpitNcuJ-152">
          <mxGeometry relative="1" as="geometry" />
        </mxCell>
        <mxCell id="czQiMBR5TgbwtpitNcuJ-138" value="E[CLS]" style="ellipse;whiteSpace=wrap;html=1;aspect=fixed;" vertex="1" parent="1">
          <mxGeometry x="340" y="1100" width="40" height="40" as="geometry" />
        </mxCell>
        <mxCell id="czQiMBR5TgbwtpitNcuJ-193" value="" style="edgeStyle=orthogonalEdgeStyle;rounded=0;orthogonalLoop=1;jettySize=auto;html=1;dashed=1;" edge="1" parent="1" source="czQiMBR5TgbwtpitNcuJ-141" target="czQiMBR5TgbwtpitNcuJ-155">
          <mxGeometry relative="1" as="geometry" />
        </mxCell>
        <mxCell id="czQiMBR5TgbwtpitNcuJ-141" value="E3" style="ellipse;whiteSpace=wrap;html=1;aspect=fixed;" vertex="1" parent="1">
          <mxGeometry x="560" y="1100" width="40" height="40" as="geometry" />
        </mxCell>
        <mxCell id="czQiMBR5TgbwtpitNcuJ-194" value="" style="edgeStyle=orthogonalEdgeStyle;rounded=0;orthogonalLoop=1;jettySize=auto;html=1;dashed=1;" edge="1" parent="1" source="czQiMBR5TgbwtpitNcuJ-142" target="czQiMBR5TgbwtpitNcuJ-156">
          <mxGeometry relative="1" as="geometry" />
        </mxCell>
        <mxCell id="czQiMBR5TgbwtpitNcuJ-142" value="E4" style="ellipse;whiteSpace=wrap;html=1;aspect=fixed;" vertex="1" parent="1">
          <mxGeometry x="630" y="1100" width="40" height="40" as="geometry" />
        </mxCell>
        <mxCell id="czQiMBR5TgbwtpitNcuJ-195" value="" style="edgeStyle=orthogonalEdgeStyle;rounded=0;orthogonalLoop=1;jettySize=auto;html=1;dashed=1;" edge="1" parent="1" source="czQiMBR5TgbwtpitNcuJ-147" target="czQiMBR5TgbwtpitNcuJ-161">
          <mxGeometry relative="1" as="geometry" />
        </mxCell>
        <mxCell id="czQiMBR5TgbwtpitNcuJ-147" value="E5" style="ellipse;whiteSpace=wrap;html=1;aspect=fixed;" vertex="1" parent="1">
          <mxGeometry x="700" y="1100" width="40" height="40" as="geometry" />
        </mxCell>
        <mxCell id="czQiMBR5TgbwtpitNcuJ-196" value="" style="edgeStyle=orthogonalEdgeStyle;rounded=0;orthogonalLoop=1;jettySize=auto;html=1;dashed=1;" edge="1" parent="1" source="czQiMBR5TgbwtpitNcuJ-148" target="czQiMBR5TgbwtpitNcuJ-162">
          <mxGeometry relative="1" as="geometry" />
        </mxCell>
        <mxCell id="czQiMBR5TgbwtpitNcuJ-148" value="E6" style="ellipse;whiteSpace=wrap;html=1;aspect=fixed;" vertex="1" parent="1">
          <mxGeometry x="770" y="1100" width="40" height="40" as="geometry" />
        </mxCell>
        <mxCell id="czQiMBR5TgbwtpitNcuJ-197" value="" style="edgeStyle=orthogonalEdgeStyle;rounded=0;orthogonalLoop=1;jettySize=auto;html=1;dashed=1;" edge="1" parent="1" source="czQiMBR5TgbwtpitNcuJ-149" target="czQiMBR5TgbwtpitNcuJ-163">
          <mxGeometry relative="1" as="geometry" />
        </mxCell>
        <mxCell id="czQiMBR5TgbwtpitNcuJ-149" value="E7" style="ellipse;whiteSpace=wrap;html=1;aspect=fixed;" vertex="1" parent="1">
          <mxGeometry x="850" y="1100" width="40" height="40" as="geometry" />
        </mxCell>
        <mxCell id="czQiMBR5TgbwtpitNcuJ-150" value="T1" style="ellipse;whiteSpace=wrap;html=1;aspect=fixed;" vertex="1" parent="1">
          <mxGeometry x="420" y="960" width="40" height="40" as="geometry" />
        </mxCell>
        <mxCell id="czQiMBR5TgbwtpitNcuJ-151" value="T2" style="ellipse;whiteSpace=wrap;html=1;aspect=fixed;" vertex="1" parent="1">
          <mxGeometry x="490" y="960" width="40" height="40" as="geometry" />
        </mxCell>
        <mxCell id="czQiMBR5TgbwtpitNcuJ-152" value="C" style="ellipse;whiteSpace=wrap;html=1;aspect=fixed;" vertex="1" parent="1">
          <mxGeometry x="340" y="960" width="40" height="40" as="geometry" />
        </mxCell>
        <mxCell id="czQiMBR5TgbwtpitNcuJ-155" value="T3" style="ellipse;whiteSpace=wrap;html=1;aspect=fixed;" vertex="1" parent="1">
          <mxGeometry x="560" y="960" width="40" height="40" as="geometry" />
        </mxCell>
        <mxCell id="czQiMBR5TgbwtpitNcuJ-156" value="T4" style="ellipse;whiteSpace=wrap;html=1;aspect=fixed;" vertex="1" parent="1">
          <mxGeometry x="630" y="960" width="40" height="40" as="geometry" />
        </mxCell>
        <mxCell id="czQiMBR5TgbwtpitNcuJ-161" value="T5" style="ellipse;whiteSpace=wrap;html=1;aspect=fixed;" vertex="1" parent="1">
          <mxGeometry x="700" y="960" width="40" height="40" as="geometry" />
        </mxCell>
        <mxCell id="czQiMBR5TgbwtpitNcuJ-162" value="T6" style="ellipse;whiteSpace=wrap;html=1;aspect=fixed;" vertex="1" parent="1">
          <mxGeometry x="770" y="960" width="40" height="40" as="geometry" />
        </mxCell>
        <mxCell id="czQiMBR5TgbwtpitNcuJ-163" value="T7" style="ellipse;whiteSpace=wrap;html=1;aspect=fixed;" vertex="1" parent="1">
          <mxGeometry x="850" y="960" width="40" height="40" as="geometry" />
        </mxCell>
        <mxCell id="czQiMBR5TgbwtpitNcuJ-187" value="&lt;font style=&quot;font-size: 20px;&quot;&gt;BERT&lt;/font&gt;" style="text;html=1;strokeColor=none;fillColor=none;align=center;verticalAlign=middle;whiteSpace=wrap;rounded=0;" vertex="1" parent="1">
          <mxGeometry x="590" y="1040" width="60" height="30" as="geometry" />
        </mxCell>
        <mxCell id="czQiMBR5TgbwtpitNcuJ-199" value="" style="shape=flexArrow;endArrow=classic;html=1;rounded=0;endWidth=42.06896551724138;endSize=7.482758620689655;width=37.93103448275862;fillColor=#dae8fc;strokeColor=#6c8ebf;" edge="1" parent="1">
          <mxGeometry width="50" height="50" relative="1" as="geometry">
            <mxPoint x="359.81" y="950" as="sourcePoint" />
            <mxPoint x="359.5" y="900" as="targetPoint" />
          </mxGeometry>
        </mxCell>
        <mxCell id="czQiMBR5TgbwtpitNcuJ-200" value="&lt;font style=&quot;font-size: 16px;&quot;&gt;相关/无关&lt;/font&gt;" style="rounded=0;whiteSpace=wrap;html=1;" vertex="1" parent="1">
          <mxGeometry x="315" y="850" width="90" height="40" as="geometry" />
        </mxCell>
        <mxCell id="czQiMBR5TgbwtpitNcuJ-204" value="加拿大确定溴氰菊酯在葡萄等农产品中的最大残留限量" style="rounded=1;whiteSpace=wrap;html=1;" vertex="1" parent="1">
          <mxGeometry x="400" y="1470" width="390" height="60" as="geometry" />
        </mxCell>
        <mxCell id="czQiMBR5TgbwtpitNcuJ-205" value="&lt;font style=&quot;font-size: 20px;&quot;&gt;加&lt;/font&gt;" style="rounded=0;whiteSpace=wrap;html=1;" vertex="1" parent="1">
          <mxGeometry x="180" y="1370" width="30" height="30" as="geometry" />
        </mxCell>
        <mxCell id="czQiMBR5TgbwtpitNcuJ-218" value="&lt;span style=&quot;font-size: 20px;&quot;&gt;拿&lt;/span&gt;" style="rounded=0;whiteSpace=wrap;html=1;" vertex="1" parent="1">
          <mxGeometry x="220" y="1370" width="30" height="30" as="geometry" />
        </mxCell>
        <mxCell id="czQiMBR5TgbwtpitNcuJ-219" value="&lt;span style=&quot;font-size: 20px;&quot;&gt;大&lt;/span&gt;" style="rounded=0;whiteSpace=wrap;html=1;" vertex="1" parent="1">
          <mxGeometry x="260" y="1370" width="30" height="30" as="geometry" />
        </mxCell>
        <mxCell id="czQiMBR5TgbwtpitNcuJ-221" value="&lt;span style=&quot;font-size: 20px;&quot;&gt;确&lt;/span&gt;" style="rounded=0;whiteSpace=wrap;html=1;" vertex="1" parent="1">
          <mxGeometry x="300" y="1370" width="30" height="30" as="geometry" />
        </mxCell>
        <mxCell id="czQiMBR5TgbwtpitNcuJ-222" value="&lt;span style=&quot;font-size: 20px;&quot;&gt;定&lt;/span&gt;" style="rounded=0;whiteSpace=wrap;html=1;" vertex="1" parent="1">
          <mxGeometry x="340.5" y="1370" width="30" height="30" as="geometry" />
        </mxCell>
        <mxCell id="czQiMBR5TgbwtpitNcuJ-223" value="&lt;font style=&quot;font-size: 20px;&quot;&gt;溴&lt;/font&gt;" style="rounded=0;whiteSpace=wrap;html=1;" vertex="1" parent="1">
          <mxGeometry x="380" y="1370" width="30" height="30" as="geometry" />
        </mxCell>
        <mxCell id="czQiMBR5TgbwtpitNcuJ-224" value="&lt;font style=&quot;font-size: 20px;&quot;&gt;氰&lt;/font&gt;" style="rounded=0;whiteSpace=wrap;html=1;" vertex="1" parent="1">
          <mxGeometry x="420" y="1370" width="30" height="30" as="geometry" />
        </mxCell>
        <mxCell id="czQiMBR5TgbwtpitNcuJ-225" value="&lt;font style=&quot;font-size: 20px;&quot;&gt;菊&lt;/font&gt;" style="rounded=0;whiteSpace=wrap;html=1;" vertex="1" parent="1">
          <mxGeometry x="460" y="1370" width="30" height="30" as="geometry" />
        </mxCell>
        <mxCell id="czQiMBR5TgbwtpitNcuJ-226" value="&lt;font style=&quot;font-size: 20px;&quot;&gt;酯&lt;/font&gt;" style="rounded=0;whiteSpace=wrap;html=1;" vertex="1" parent="1">
          <mxGeometry x="500" y="1370" width="30" height="30" as="geometry" />
        </mxCell>
        <mxCell id="czQiMBR5TgbwtpitNcuJ-227" value="&lt;span style=&quot;font-size: 20px;&quot;&gt;在&lt;/span&gt;" style="rounded=0;whiteSpace=wrap;html=1;" vertex="1" parent="1">
          <mxGeometry x="540" y="1370" width="30" height="30" as="geometry" />
        </mxCell>
        <mxCell id="czQiMBR5TgbwtpitNcuJ-228" value="&lt;span style=&quot;font-size: 20px;&quot;&gt;葡&lt;/span&gt;" style="rounded=0;whiteSpace=wrap;html=1;" vertex="1" parent="1">
          <mxGeometry x="580" y="1370" width="30" height="30" as="geometry" />
        </mxCell>
        <mxCell id="czQiMBR5TgbwtpitNcuJ-229" value="&lt;span style=&quot;font-size: 20px;&quot;&gt;萄&lt;/span&gt;" style="rounded=0;whiteSpace=wrap;html=1;" vertex="1" parent="1">
          <mxGeometry x="620" y="1370" width="30" height="30" as="geometry" />
        </mxCell>
        <mxCell id="czQiMBR5TgbwtpitNcuJ-230" value="&lt;span style=&quot;font-size: 20px;&quot;&gt;等&lt;/span&gt;" style="rounded=0;whiteSpace=wrap;html=1;" vertex="1" parent="1">
          <mxGeometry x="660" y="1370" width="30" height="30" as="geometry" />
        </mxCell>
        <mxCell id="czQiMBR5TgbwtpitNcuJ-231" value="&lt;span style=&quot;font-size: 20px;&quot;&gt;农&lt;/span&gt;" style="rounded=0;whiteSpace=wrap;html=1;" vertex="1" parent="1">
          <mxGeometry x="700" y="1370" width="30" height="30" as="geometry" />
        </mxCell>
        <mxCell id="czQiMBR5TgbwtpitNcuJ-232" value="&lt;span style=&quot;font-size: 20px;&quot;&gt;产&lt;/span&gt;" style="rounded=0;whiteSpace=wrap;html=1;" vertex="1" parent="1">
          <mxGeometry x="740" y="1370" width="30" height="30" as="geometry" />
        </mxCell>
        <mxCell id="czQiMBR5TgbwtpitNcuJ-233" value="&lt;span style=&quot;font-size: 20px;&quot;&gt;品&lt;/span&gt;" style="rounded=0;whiteSpace=wrap;html=1;" vertex="1" parent="1">
          <mxGeometry x="780" y="1370" width="30" height="30" as="geometry" />
        </mxCell>
        <mxCell id="czQiMBR5TgbwtpitNcuJ-234" value="&lt;span style=&quot;font-size: 20px;&quot;&gt;中&lt;/span&gt;" style="rounded=0;whiteSpace=wrap;html=1;" vertex="1" parent="1">
          <mxGeometry x="820" y="1370" width="30" height="30" as="geometry" />
        </mxCell>
        <mxCell id="czQiMBR5TgbwtpitNcuJ-235" value="&lt;span style=&quot;font-size: 20px;&quot;&gt;的&lt;/span&gt;" style="rounded=0;whiteSpace=wrap;html=1;" vertex="1" parent="1">
          <mxGeometry x="860" y="1370" width="30" height="30" as="geometry" />
        </mxCell>
        <mxCell id="czQiMBR5TgbwtpitNcuJ-236" value="&lt;span style=&quot;font-size: 20px;&quot;&gt;最&lt;/span&gt;" style="rounded=0;whiteSpace=wrap;html=1;" vertex="1" parent="1">
          <mxGeometry x="900" y="1370" width="30" height="30" as="geometry" />
        </mxCell>
        <mxCell id="czQiMBR5TgbwtpitNcuJ-237" value="&lt;span style=&quot;font-size: 20px;&quot;&gt;大&lt;/span&gt;" style="rounded=0;whiteSpace=wrap;html=1;" vertex="1" parent="1">
          <mxGeometry x="940" y="1370" width="30" height="30" as="geometry" />
        </mxCell>
        <mxCell id="czQiMBR5TgbwtpitNcuJ-238" value="&lt;span style=&quot;font-size: 20px;&quot;&gt;残&lt;/span&gt;" style="rounded=0;whiteSpace=wrap;html=1;" vertex="1" parent="1">
          <mxGeometry x="980" y="1370" width="30" height="30" as="geometry" />
        </mxCell>
        <mxCell id="czQiMBR5TgbwtpitNcuJ-239" value="&lt;span style=&quot;font-size: 20px;&quot;&gt;留&lt;/span&gt;" style="rounded=0;whiteSpace=wrap;html=1;" vertex="1" parent="1">
          <mxGeometry x="1020" y="1370" width="30" height="30" as="geometry" />
        </mxCell>
        <mxCell id="czQiMBR5TgbwtpitNcuJ-240" value="&lt;span style=&quot;font-size: 20px;&quot;&gt;限&lt;/span&gt;" style="rounded=0;whiteSpace=wrap;html=1;" vertex="1" parent="1">
          <mxGeometry x="1060" y="1370" width="30" height="30" as="geometry" />
        </mxCell>
        <mxCell id="czQiMBR5TgbwtpitNcuJ-241" value="&lt;span style=&quot;font-size: 20px;&quot;&gt;量&lt;/span&gt;" style="rounded=0;whiteSpace=wrap;html=1;" vertex="1" parent="1">
          <mxGeometry x="1100" y="1370" width="30" height="30" as="geometry" />
        </mxCell>
        <mxCell id="czQiMBR5TgbwtpitNcuJ-242" value="B-O" style="ellipse;whiteSpace=wrap;html=1;aspect=fixed;" vertex="1" parent="1">
          <mxGeometry x="180" y="1330" width="30" height="30" as="geometry" />
        </mxCell>
        <mxCell id="czQiMBR5TgbwtpitNcuJ-244" value="I-O" style="ellipse;whiteSpace=wrap;html=1;aspect=fixed;" vertex="1" parent="1">
          <mxGeometry x="220" y="1330" width="30" height="30" as="geometry" />
        </mxCell>
        <mxCell id="czQiMBR5TgbwtpitNcuJ-245" value="I-O" style="ellipse;whiteSpace=wrap;html=1;aspect=fixed;" vertex="1" parent="1">
          <mxGeometry x="260" y="1330" width="30" height="30" as="geometry" />
        </mxCell>
        <mxCell id="czQiMBR5TgbwtpitNcuJ-246" value="O" style="ellipse;whiteSpace=wrap;html=1;aspect=fixed;" vertex="1" parent="1">
          <mxGeometry x="300" y="1330" width="30" height="30" as="geometry" />
        </mxCell>
        <mxCell id="czQiMBR5TgbwtpitNcuJ-247" value="O" style="ellipse;whiteSpace=wrap;html=1;aspect=fixed;" vertex="1" parent="1">
          <mxGeometry x="340" y="1330" width="30" height="30" as="geometry" />
        </mxCell>
        <mxCell id="czQiMBR5TgbwtpitNcuJ-248" value="B-C" style="ellipse;whiteSpace=wrap;html=1;aspect=fixed;" vertex="1" parent="1">
          <mxGeometry x="380" y="1330" width="30" height="30" as="geometry" />
        </mxCell>
        <mxCell id="czQiMBR5TgbwtpitNcuJ-249" value="I-C" style="ellipse;whiteSpace=wrap;html=1;aspect=fixed;" vertex="1" parent="1">
          <mxGeometry x="420" y="1330" width="30" height="30" as="geometry" />
        </mxCell>
        <mxCell id="czQiMBR5TgbwtpitNcuJ-250" value="I-C" style="ellipse;whiteSpace=wrap;html=1;aspect=fixed;" vertex="1" parent="1">
          <mxGeometry x="460" y="1330" width="30" height="30" as="geometry" />
        </mxCell>
        <mxCell id="czQiMBR5TgbwtpitNcuJ-251" value="I-C" style="ellipse;whiteSpace=wrap;html=1;aspect=fixed;" vertex="1" parent="1">
          <mxGeometry x="500" y="1330" width="30" height="30" as="geometry" />
        </mxCell>
        <mxCell id="czQiMBR5TgbwtpitNcuJ-252" value="O" style="ellipse;whiteSpace=wrap;html=1;aspect=fixed;" vertex="1" parent="1">
          <mxGeometry x="540" y="1330" width="30" height="30" as="geometry" />
        </mxCell>
        <mxCell id="czQiMBR5TgbwtpitNcuJ-253" value="B-F" style="ellipse;whiteSpace=wrap;html=1;aspect=fixed;" vertex="1" parent="1">
          <mxGeometry x="580" y="1330" width="30" height="30" as="geometry" />
        </mxCell>
        <mxCell id="czQiMBR5TgbwtpitNcuJ-254" value="I-F" style="ellipse;whiteSpace=wrap;html=1;aspect=fixed;" vertex="1" parent="1">
          <mxGeometry x="620" y="1330" width="30" height="30" as="geometry" />
        </mxCell>
        <mxCell id="czQiMBR5TgbwtpitNcuJ-255" value="O" style="ellipse;whiteSpace=wrap;html=1;aspect=fixed;" vertex="1" parent="1">
          <mxGeometry x="660" y="1330" width="30" height="30" as="geometry" />
        </mxCell>
        <mxCell id="czQiMBR5TgbwtpitNcuJ-256" value="B-F" style="ellipse;whiteSpace=wrap;html=1;aspect=fixed;" vertex="1" parent="1">
          <mxGeometry x="700" y="1330" width="30" height="30" as="geometry" />
        </mxCell>
        <mxCell id="czQiMBR5TgbwtpitNcuJ-257" value="I-F" style="ellipse;whiteSpace=wrap;html=1;aspect=fixed;" vertex="1" parent="1">
          <mxGeometry x="740" y="1330" width="30" height="30" as="geometry" />
        </mxCell>
        <mxCell id="czQiMBR5TgbwtpitNcuJ-258" value="I-F" style="ellipse;whiteSpace=wrap;html=1;aspect=fixed;" vertex="1" parent="1">
          <mxGeometry x="780" y="1330" width="30" height="30" as="geometry" />
        </mxCell>
        <mxCell id="czQiMBR5TgbwtpitNcuJ-259" value="O" style="ellipse;whiteSpace=wrap;html=1;aspect=fixed;" vertex="1" parent="1">
          <mxGeometry x="820" y="1330" width="30" height="30" as="geometry" />
        </mxCell>
        <mxCell id="czQiMBR5TgbwtpitNcuJ-260" value="O" style="ellipse;whiteSpace=wrap;html=1;aspect=fixed;" vertex="1" parent="1">
          <mxGeometry x="860" y="1330" width="30" height="30" as="geometry" />
        </mxCell>
        <mxCell id="czQiMBR5TgbwtpitNcuJ-261" value="B-R" style="ellipse;whiteSpace=wrap;html=1;aspect=fixed;" vertex="1" parent="1">
          <mxGeometry x="900" y="1330" width="30" height="30" as="geometry" />
        </mxCell>
        <mxCell id="czQiMBR5TgbwtpitNcuJ-262" value="I-R" style="ellipse;whiteSpace=wrap;html=1;aspect=fixed;" vertex="1" parent="1">
          <mxGeometry x="940" y="1330" width="30" height="30" as="geometry" />
        </mxCell>
        <mxCell id="czQiMBR5TgbwtpitNcuJ-263" value="I-R" style="ellipse;whiteSpace=wrap;html=1;aspect=fixed;" vertex="1" parent="1">
          <mxGeometry x="980" y="1330" width="30" height="30" as="geometry" />
        </mxCell>
        <mxCell id="czQiMBR5TgbwtpitNcuJ-264" value="I-R" style="ellipse;whiteSpace=wrap;html=1;aspect=fixed;" vertex="1" parent="1">
          <mxGeometry x="1020" y="1330" width="30" height="30" as="geometry" />
        </mxCell>
        <mxCell id="czQiMBR5TgbwtpitNcuJ-265" value="I-R" style="ellipse;whiteSpace=wrap;html=1;aspect=fixed;" vertex="1" parent="1">
          <mxGeometry x="1060" y="1330" width="30" height="30" as="geometry" />
        </mxCell>
        <mxCell id="czQiMBR5TgbwtpitNcuJ-266" value="I-R" style="ellipse;whiteSpace=wrap;html=1;aspect=fixed;" vertex="1" parent="1">
          <mxGeometry x="1100" y="1330" width="30" height="30" as="geometry" />
        </mxCell>
        <mxCell id="czQiMBR5TgbwtpitNcuJ-270" value="O : organization&lt;br&gt;F : food&lt;br&gt;C : contaminant&lt;br&gt;R : regulation" style="rounded=0;whiteSpace=wrap;html=1;align=left;" vertex="1" parent="1">
          <mxGeometry x="1030" y="1250" width="100" height="60" as="geometry" />
        </mxCell>
      </root>
    </mxGraphModel>
  </diagram>
</mxfile>
